<?xml version="1.0" standalone="no"?>
<!DOCTYPE svg PUBLIC "-//W3C//DTD SVG 20010904//EN"
 "http://www.w3.org/TR/2001/REC-SVG-20010904/DTD/svg10.dtd">
<svg version="1.0" xmlns="http://www.w3.org/2000/svg"
 width="270.000000pt" height="270.000000pt" viewBox="0 0 270.000000 270.000000"
 preserveAspectRatio="xMidYMid meet">
<metadata>
Created by potrace 1.14, written by Peter Selinger 2001-2017
</metadata>
<g transform="translate(0.000000,270.000000) scale(0.100000,-0.100000)"
fill="#000000" stroke="none">
<path d="M1465 2488 c-229 -38 -386 -108 -504 -226 -61 -60 -131 -155 -131
-177 0 -7 -5 -15 -12 -17 -6 -2 -13 -15 -15 -28 -2 -13 -11 -32 -20 -42 -9
-10 -13 -18 -10 -18 4 0 2 -12 -4 -27 -6 -16 -12 -39 -15 -53 -2 -14 -6 -36
-9 -50 -10 -42 -12 -160 -3 -160 5 0 4 -9 -2 -20 -6 -11 -7 -20 -3 -20 5 0 9
-12 10 -27 3 -35 7 -61 17 -95 6 -20 3 -34 -12 -55 -28 -39 -77 -149 -103
-229 l-21 -65 -22 23 c-11 12 -20 27 -18 33 2 5 0 7 -3 3 -4 -4 -26 6 -49 22
-171 117 -416 28 -462 -168 -10 -42 -6 -159 5 -181 6 -11 11 -29 11 -40 0 -12
5 -21 10 -21 6 0 10 -11 10 -25 0 -13 7 -28 16 -33 9 -5 15 -12 15 -16 -1 -3
6 -20 14 -36 10 -20 12 -30 4 -30 -6 0 -9 -7 -6 -15 4 -8 2 -17 -3 -20 -12 -7
-5 -122 8 -138 5 -7 13 -23 17 -36 12 -39 119 -137 163 -147 12 -4 22 -10 22
-15 0 -5 6 -9 14 -9 7 0 25 -9 40 -21 15 -12 34 -18 42 -15 11 4 15 2 11 -7
-3 -8 3 -13 14 -13 11 0 19 5 19 11 0 5 4 4 9 -4 11 -17 97 -17 119 1 12 10
14 10 8 1 -4 -7 -2 -13 3 -13 6 0 11 4 11 9 0 5 11 16 24 24 28 18 66 12 67
-12 0 -10 2 -11 6 -4 4 10 9 10 25 -1 11 -8 27 -12 34 -9 8 3 14 0 14 -6 0 -6
7 -8 15 -5 8 4 21 2 28 -3 6 -6 36 -9 64 -9 29 1 53 -3 53 -9 0 -5 4 -4 9 4 5
7 13 11 19 7 6 -3 13 0 15 6 3 8 6 6 6 -5 1 -10 6 -15 11 -12 6 4 7 12 3 18
-4 8 -1 7 9 -1 13 -10 18 -10 24 -1 4 8 3 9 -4 5 -7 -4 -12 -2 -12 4 0 7 7 10
15 6 8 -3 21 1 29 9 7 8 16 11 20 8 3 -4 6 -1 6 6 0 7 6 11 14 8 8 -3 17 -1
20 6 4 11 10 -18 7 -36 -1 -5 3 -6 9 -2 6 3 8 11 5 16 -12 18 6 31 23 17 13
-11 14 -11 8 1 -6 9 -5 12 5 9 7 -2 25 6 38 18 14 13 29 20 34 17 6 -3 7 -1 4
4 -4 6 0 16 8 23 8 7 15 19 15 27 0 12 3 13 14 4 11 -9 14 -8 12 6 0 10 -5 21
-9 24 -5 3 -2 12 5 20 7 8 14 23 14 34 0 12 6 19 14 17 11 -3 11 0 0 12 -14
18 -15 17 50 20 25 1 34 -3 32 -13 -2 -11 0 -12 11 -3 8 7 17 9 21 5 4 -4 4 1
0 11 -5 14 -4 17 4 12 7 -4 18 -4 24 1 12 7 47 13 95 16 12 1 20 4 17 6 -8 8
62 38 76 32 8 -4 32 -6 52 -6 21 0 38 -3 38 -6 0 -4 15 -4 33 0 41 8 59 7 75
-2 6 -5 12 -4 12 1 0 5 19 13 43 17 23 4 48 9 55 11 8 1 11 -3 8 -12 -3 -9 -1
-12 4 -9 6 3 10 13 10 21 0 8 4 13 9 9 5 -3 16 1 24 9 11 11 17 12 26 3 7 -7
11 -7 9 -2 -2 6 2 10 7 10 6 0 9 -4 7 -10 -2 -5 0 -6 5 -2 4 5 8 14 8 20 0 7
10 11 22 11 13 -1 20 2 18 7 -7 10 36 40 47 33 4 -3 8 0 8 5 0 6 7 11 16 11 8
0 13 4 9 9 -3 5 4 12 15 16 11 3 20 11 20 17 0 6 6 6 15 -2 13 -11 14 -10 10
3 -7 16 29 47 49 43 6 -2 8 -1 4 1 -5 3 -8 12 -8 20 0 13 2 13 17 2 10 -8 14
-9 10 -2 -4 6 2 27 13 45 11 18 20 27 20 21 0 -7 4 -13 9 -13 5 0 8 8 6 18 -1
9 2 26 8 37 10 19 11 19 19 -5 6 -21 7 -19 3 8 -3 18 0 32 6 32 6 0 7 5 4 10
-3 6 -1 10 5 10 6 0 8 5 5 10 -3 6 -1 10 5 10 6 0 8 5 5 10 -3 6 -1 10 5 10 6
0 8 4 5 10 -3 5 1 20 10 33 8 13 12 27 8 32 -5 4 -2 5 6 0 10 -6 12 -2 6 14
-3 11 -3 21 2 21 4 0 9 19 11 42 1 23 6 45 10 48 4 3 7 14 6 25 -1 29 7 39 17
24 6 -10 9 -10 9 -2 0 6 -4 15 -10 18 -5 3 -10 11 -10 16 0 6 3 8 8 6 11 -8 8
57 -3 65 -6 5 -6 8 1 8 7 0 10 15 7 41 -4 33 -2 40 8 34 11 -6 12 -5 2 6 -7 7
-13 19 -13 27 0 8 5 10 13 6 8 -5 8 -3 -2 9 -7 9 -11 30 -9 46 2 17 1 28 -4
25 -5 -3 -7 6 -4 20 3 16 0 26 -7 26 -7 0 -6 4 3 10 11 7 12 12 3 18 -10 6
-22 50 -26 97 -1 11 -8 26 -14 33 -7 7 -13 20 -13 28 0 25 -1 29 -17 47 -9 9
-13 20 -10 23 3 4 -1 13 -9 21 -8 8 -12 19 -9 24 4 5 1 9 -5 9 -6 0 -9 4 -6 9
3 4 -3 19 -14 31 -11 12 -17 27 -13 33 3 6 1 7 -5 3 -7 -4 -12 -1 -12 8 0 9
-5 16 -12 16 -6 0 -9 3 -5 6 6 6 -4 21 -37 54 -10 11 -15 24 -11 31 5 7 4 10
-2 6 -12 -8 -64 48 -55 59 4 4 2 4 -4 1 -6 -4 -22 5 -35 19 -41 44 -161 130
-228 164 -68 34 -189 75 -248 85 -19 3 -39 8 -44 11 -16 9 -211 11 -264 2z"/>
<path d="M2590 1439 c0 -5 5 -7 10 -4 6 3 10 8 10 11 0 2 -4 4 -10 4 -5 0 -10
-5 -10 -11z"/>
<path d="M2573 1225 c0 -8 4 -12 9 -9 5 3 6 10 3 15 -9 13 -12 11 -12 -6z"/>
<path d="M2550 1200 c0 -5 5 -10 11 -10 5 0 7 5 4 10 -3 6 -8 10 -11 10 -2 0
-4 -4 -4 -10z"/>
<path d="M2553 1145 c0 -8 4 -15 9 -15 4 0 8 4 8 9 0 6 -4 12 -8 15 -5 3 -9
-1 -9 -9z"/>
<path d="M2526 1082 c-3 -5 1 -9 9 -9 8 0 12 4 9 9 -3 4 -7 8 -9 8 -2 0 -6 -4
-9 -8z"/>
<path d="M2470 959 c0 -5 5 -7 10 -4 6 3 10 8 10 11 0 2 -4 4 -10 4 -5 0 -10
-5 -10 -11z"/>
<path d="M2395 859 c-3 -4 2 -6 10 -5 21 3 28 13 10 13 -9 0 -18 -4 -20 -8z"/>
<path d="M2333 785 c0 -8 4 -12 9 -9 5 3 6 10 3 15 -9 13 -12 11 -12 -6z"/>
<path d="M2233 705 c0 -8 4 -12 9 -9 5 3 6 10 3 15 -9 13 -12 11 -12 -6z"/>
<path d="M2180 686 c0 -2 8 -10 18 -17 15 -13 16 -12 3 4 -13 16 -21 21 -21
13z"/>
<path d="M2096 618 c3 -5 10 -6 15 -3 13 9 11 12 -6 12 -8 0 -12 -4 -9 -9z"/>
<path d="M1960 600 c-9 -6 -10 -10 -3 -10 6 0 15 5 18 10 8 12 4 12 -15 0z"/>
<path d="M1655 571 c-3 -5 -2 -12 3 -15 5 -3 9 1 9 9 0 17 -3 19 -12 6z"/>
<path d="M1550 541 c0 -6 4 -13 10 -16 6 -3 7 1 4 9 -7 18 -14 21 -14 7z"/>
<path d="M1413 525 c0 -8 4 -12 9 -9 5 3 6 10 3 15 -9 13 -12 11 -12 -6z"/>
<path d="M1325 380 c3 -5 8 -10 11 -10 2 0 4 5 4 10 0 6 -5 10 -11 10 -5 0 -7
-4 -4 -10z"/>
<path d="M1263 328 c-11 -19 -13 -39 -2 -32 5 3 7 9 4 14 -3 5 3 13 12 19 10
6 13 11 6 11 -6 0 -15 -6 -20 -12z"/>
<path d="M575 240 c-3 -5 -1 -10 4 -10 6 0 11 5 11 10 0 6 -2 10 -4 10 -3 0
-8 -4 -11 -10z"/>
</g>
</svg>
